<mxfile host="65bd71144e">
    <diagram name="内存布局" id="JJZIhbkknoOjwpoMTnqY">
        <mxGraphModel dx="1198" dy="703" grid="0" gridSize="10" guides="1" tooltips="1" connect="1" arrows="1" fold="1" page="1" pageScale="1" pageWidth="827" pageHeight="1169" math="0" shadow="0">
            <root>
                <mxCell id="0"/>
                <mxCell id="1" parent="0"/>
                <mxCell id="CnCVsNhWn1RWECQ61E2t-5" value="" style="rounded=0;whiteSpace=wrap;html=1;fontFamily=Helvetica;fontSize=18;" parent="1" vertex="1">
                    <mxGeometry x="160" y="230" width="120" height="340" as="geometry"/>
                </mxCell>
                <mxCell id="CnCVsNhWn1RWECQ61E2t-1" value="栈" style="rounded=0;whiteSpace=wrap;html=1;fontFamily=Helvetica;fontSize=18;labelBackgroundColor=none;textShadow=0;fillColor=#ffe6cc;strokeColor=#d79b00;" parent="1" vertex="1">
                    <mxGeometry x="160" y="230" width="120" height="60" as="geometry"/>
                </mxCell>
                <mxCell id="CnCVsNhWn1RWECQ61E2t-2" value="堆" style="rounded=0;whiteSpace=wrap;html=1;fontFamily=Helvetica;fontSize=18;fillColor=#dae8fc;strokeColor=#6c8ebf;" parent="1" vertex="1">
                    <mxGeometry x="160" y="360" width="120" height="110" as="geometry"/>
                </mxCell>
                <mxCell id="CnCVsNhWn1RWECQ61E2t-3" value="数据段" style="rounded=0;whiteSpace=wrap;html=1;fontFamily=Helvetica;fontSize=18;fillColor=#d5e8d4;strokeColor=#82b366;" parent="1" vertex="1">
                    <mxGeometry x="160" y="470" width="120" height="50" as="geometry"/>
                </mxCell>
                <mxCell id="CnCVsNhWn1RWECQ61E2t-4" value="代码段" style="rounded=0;whiteSpace=wrap;html=1;fontFamily=Helvetica;fontSize=18;fillColor=#e1d5e7;strokeColor=#9673a6;" parent="1" vertex="1">
                    <mxGeometry x="160" y="520" width="120" height="50" as="geometry"/>
                </mxCell>
                <mxCell id="CnCVsNhWn1RWECQ61E2t-7" value="" style="endArrow=classic;html=1;rounded=0;exitX=0.75;exitY=1;exitDx=0;exitDy=0;fontFamily=Helvetica;fontSize=18;" parent="1" source="CnCVsNhWn1RWECQ61E2t-1" edge="1">
                    <mxGeometry width="50" height="50" relative="1" as="geometry">
                        <mxPoint x="390" y="440" as="sourcePoint"/>
                        <mxPoint x="250" y="320" as="targetPoint"/>
                    </mxGeometry>
                </mxCell>
                <mxCell id="CnCVsNhWn1RWECQ61E2t-8" value="" style="endArrow=classic;html=1;rounded=0;entryX=0.25;entryY=1;entryDx=0;entryDy=0;fontFamily=Helvetica;fontSize=18;" parent="1" edge="1">
                    <mxGeometry width="50" height="50" relative="1" as="geometry">
                        <mxPoint x="190" y="360" as="sourcePoint"/>
                        <mxPoint x="190" y="324" as="targetPoint"/>
                    </mxGeometry>
                </mxCell>
                <mxCell id="CnCVsNhWn1RWECQ61E2t-9" value="" style="endArrow=none;html=1;rounded=0;endFill=1;startFill=0;" parent="1" edge="1">
                    <mxGeometry width="50" height="50" relative="1" as="geometry">
                        <mxPoint x="320" y="230" as="sourcePoint"/>
                        <mxPoint x="320" y="560" as="targetPoint"/>
                    </mxGeometry>
                </mxCell>
                <mxCell id="CnCVsNhWn1RWECQ61E2t-10" value="高地址" style="edgeLabel;html=1;align=center;verticalAlign=middle;resizable=0;points=[];fontSize=12;" parent="CnCVsNhWn1RWECQ61E2t-9" vertex="1" connectable="0">
                    <mxGeometry x="-0.8994" y="-1" relative="1" as="geometry">
                        <mxPoint y="-17" as="offset"/>
                    </mxGeometry>
                </mxCell>
                <mxCell id="CnCVsNhWn1RWECQ61E2t-11" value="低地址" style="edgeLabel;html=1;align=center;verticalAlign=middle;resizable=0;points=[];fontSize=12;" parent="CnCVsNhWn1RWECQ61E2t-9" vertex="1" connectable="0">
                    <mxGeometry x="0.8764" y="1" relative="1" as="geometry">
                        <mxPoint y="30" as="offset"/>
                    </mxGeometry>
                </mxCell>
            </root>
        </mxGraphModel>
    </diagram>
</mxfile>